<?xml version="1.0" encoding="UTF-8"?>
<svg id="Layer_1" xmlns="http://www.w3.org/2000/svg" version="1.1" viewBox="0 0 150 150">
  <!-- Generator: Adobe Illustrator 29.3.1, SVG Export Plug-In . SVG Version: 2.1.0 Build 151)  -->
  <defs>
    <style>
      .st0 {
        fill: #e9b30a;
      }
    </style>
  </defs>
  <path class="st0" d="M32.7,25.2c5.2-1,21-1.2,24.7,2.8s4,25.3-.5,29.4-25.3,4-29.4-.5-3.3-18.4-2.5-23.4,3.6-7.5,7.7-8.3ZM50,35h-15v15h15v-15Z"/>
  <path class="st0" d="M97.7,25.2c5.2-1,21-1.2,24.7,2.8,4,4.3,4,25.3-.5,29.4s-25.3,4-29.4-.5-3.3-18.4-2.5-23.4c.6-4,3.6-7.5,7.7-8.3ZM115,35h-15v15h15v-15Z"/>
  <path class="st0" d="M32.7,90.2c5.2-1,21-1.2,24.7,2.8s4,25.3-.5,29.4c-4.3,4-25.3,4-29.4-.5s-3.3-18.4-2.5-23.4,3.6-7.5,7.7-8.3ZM50,100h-15v15h15v-15Z"/>
  <path class="st0" d="M123.8,91.3c1.6,1.6,1.6,6.5-.4,7.8-4.7,3-17-1.4-21.4,2.3s2.7,23.2-6.5,23.5c-4.2.2-5-1.7-5.4-5.4-1.2-11-1.4-27.4,12.6-29.4s19.4-.6,21.2,1.2Z"/>
  <path class="st0" d="M78.8,46.3c1.8,1.8,1.6,17.9,1.2,21.2-1.9,13.7-18.7,13.7-29.4,12.6s-5.6-1.2-5.4-5.4c.3-8.9,17.8-1.6,23-6s-.3-17,2.8-21.9,6.2-2.1,7.8-.4Z"/>
  <path class="st0" d="M92.7,70.2c6.2-1.8,17.1,1.1,11.4,8.4-1.6,2.1-10.7,2.1-12.7.5s-2.1-7.9,1.3-8.9Z"/>
  <path class="st0" d="M72.7,110.2c10.1-3.1,8.8,13.3,4.6,14.6-10.1,3.1-8.8-13.3-4.6-14.6Z"/>
  <path class="st0" d="M72.7,25.2c9.4-2.8,10.4,11.4.8,9.8s-4.8-8.6-.8-9.8Z"/>
  <path class="st0" d="M27.7,70.2c9.4-2.8,10.4,11.4.8,9.8-4.9-.8-4.8-8.6-.8-9.8Z"/>
  <path class="st0" d="M117.7,70.2c9.4-2.8,10.4,11.4.8,9.8-4.9-.8-4.8-8.6-.8-9.8Z"/>
  <path class="st0" d="M72.7,90.2c9.4-2.8,10.4,11.4.8,9.8-4.9-.8-4.8-8.6-.8-9.8Z"/>
  <path class="st0" d="M117.7,115.2c9.4-2.8,10.4,11.4.8,9.8-4.9-.8-4.8-8.6-.8-9.8Z"/>
</svg>